<svg xmlns="http://www.w3.org/2000/svg" xmlns:xlink="http://www.w3.org/1999/xlink" width="810" height="1326" viewBox="0 0 810 1326"><defs><linearGradient id="a" x1="0.5" y1="1" x2="0.5" gradientUnits="objectBoundingBox"><stop offset="0" stop-color="#40bde8"/><stop offset="1" stop-color="#fff"/></linearGradient><clipPath id="b"><rect width="810" height="1326" transform="translate(0 1708)" fill="#fff"/></clipPath><clipPath id="c"><rect width="1167.333" height="1534.067" fill="url(#a)"/></clipPath><clipPath id="e"><rect width="679.31" height="766.984" fill="none"/></clipPath></defs><g transform="translate(0 -3621)"><g transform="translate(0 1913)" clip-path="url(#b)"><g transform="translate(781 3193.034) rotate(180)" opacity="0.1"><g clip-path="url(#c)"><path d="M1167.334,1534.067s-320.705-43.92-477.865-121.788-231.9-183.818-455.613-241.261c-88.574-22.743-145.681-94.876-182.227-172.027C-17.21,853.67-17.21,680.4,51.629,535.075c36.545-77.149,93.649-149.284,182.227-172.027C457.564,305.606,532.31,199.655,689.469,121.787S1167.334,0,1167.334,0Z" transform="translate(-0.001)" fill="url(#a)"/></g></g></g><g transform="translate(93 3871)"><g clip-path="url(#e)"><path d="M471.951,131.963l30.463-12.046A75.587,75.587,0,0,0,527.9,130.738c44.474,9.951,88.928-20.2,89.331-63.305C617.593,31,585.556,1.159,545.6.753c-39.881-.371-72.539,28.789-72.959,65.322a61.239,61.239,0,0,0,11.1,35.672Zm60.936-79.2a8.714,8.714,0,0,0-2.827,14.215L544.6,81.442l14.545-14.467A8.715,8.715,0,1,0,546.824,54.65l-2.22,2.22-2.219-2.22a8.711,8.711,0,0,0-9.5-1.89" fill="#fff" fill-rule="evenodd"/><path d="M443.631,243.835l3.877-1,.647-3.585a17.385,17.385,0,0,0-7.124.259l2.528,4.138a1.123,1.123,0,0,1,.072.19" fill="#fff"/><path d="M428.682,247.7l12.424-3.21-2.951-4.057a24.328,24.328,0,0,0-9.473,7.267" fill="#fff"/><path d="M375.529,218.273a5.449,5.449,0,0,1-3.2-1.056,5.4,5.4,0,0,1-5.363,5.137h-.016a5.4,5.4,0,0,1-3.513-1.319,5.441,5.441,0,0,1-5.314,4.347h-.016a5.411,5.411,0,0,1-3.916-1.669,5.391,5.391,0,0,1-4.988,3.346h-.013a5.346,5.346,0,0,1-4.557-2.558,5.345,5.345,0,0,1-4.63,2.9h-.058a5.233,5.233,0,0,1-4.888-3.4,5.4,5.4,0,0,1-4.4,2.311h-.006a5.456,5.456,0,0,1-5.3-4.265,5.534,5.534,0,0,1-3.5,1.3h-.007a.562.562,0,0,1-.071,0,5.419,5.419,0,0,1-5.342-5.412,5.266,5.266,0,0,1,.036-.548,6.418,6.418,0,0,1-2.579.548c-.176,0-.351-.007-.527-.021a5.478,5.478,0,0,1-4.041-9.034c-7.957,2.358-16.485,6.231-21.188,14.839-7.953,14.542-17.076,62.568-21.267,91.3A24.627,24.627,0,0,0,282.766,341.6a399.472,399.472,0,0,0,85.3,19.825,8.2,8.2,0,0,1-.766-1.44c-4-9.6-.518-32.218,5.022-44.747,0-.007,0-.013,0-.02a.756.756,0,0,1,.136-.294,30.99,30.99,0,0,1,2.571-4.713,12.4,12.4,0,0,1,2.519-2.829l-57.122-9.339a.755.755,0,0,1-.495-.313.747.747,0,0,1-.119-.573l6.277-31.615a.75.75,0,0,1,1.471.292l-6.126,30.854,52.525,8.587,8.011-14.393c8.35-15.048,6.964-36.034,6.95-36.245a.75.75,0,0,1,1.5-.107c.015.215,1.435,21.637-7.134,37.08l-7.75,13.922,4.816.788a2.929,2.929,0,0,1,.469.059c1.772.376,3.069,2.286,3.87,5.663,4.148-3.979,7.55-11.674,11.239-21.809,3.34-9.1,4.973-10.867,6.408-10.678,1.613.2,2.075,2.784,2.555,7.044l7.689-24.151a114.631,114.631,0,0,1-5.477-15.129c-1.245-4.008-2.532-8.153-4.054-11.878-5.732-14.055-14.728-21.076-22.543-24.83a5.717,5.717,0,0,1,.294.9,5.563,5.563,0,0,1-5.271,6.757" fill="#40bde8"/><path d="M376.429,168.5c-.032.4-.072.794-.112,1.191-.009.077-.014.154-.022.231,3.576-1.137,6.642-7.233,7.042-14.347.343-6.52-1.558-11.7-3.6-13.938a3.56,3.56,0,0,0-2.349-1.346l-1.182-.042q.176,1.794.3,3.6a130.993,130.993,0,0,1-.086,24.653" fill="#fff"/><path d="M348.581,167.473a34.1,34.1,0,0,0,10.519,6.66.745.745,0,0,1,.253.171,4.1,4.1,0,1,1-.562,1.27.754.754,0,0,1-.25-.048,35.651,35.651,0,0,1-10.921-6.9,6.465,6.465,0,0,1-4.644,2.225h-.3a54.966,54.966,0,0,1-4.524,18.517A32.658,32.658,0,0,1,325.7,204.087c-1.94,1.174-5.056,1.923-9,2.872-1.2.29-2.467.594-3.764.926a17.219,17.219,0,0,0,5.283,7.128,44.105,44.105,0,0,0,7.911,3.84.785.785,0,0,1,.249.031,44.235,44.235,0,0,0,8.956,2.032.768.768,0,0,1,.289.1,58.921,58.921,0,0,0,8.85.3c.013,0,.028.007.042.006a.193.193,0,0,0,.023-.006,60.9,60.9,0,0,0,9.07-1.134.731.731,0,0,1,.155,0,70.705,70.705,0,0,0,8.3-2.185.751.751,0,0,1,.267-.164,77.722,77.722,0,0,0,8.568-3.487.726.726,0,0,1,.19-.048,15.157,15.157,0,0,0,5.755-5.258,68.027,68.027,0,0,0-8.354-2.511c-1.151-.284-2.06-.509-2.731-.741A15.887,15.887,0,0,1,354.84,189.6l-4.106-7.921a.75.75,0,0,1,1.106-.953,26.992,26.992,0,0,0,4.613,2.681.58.58,0,0,1,.069.05c3.12,1.465,7.6,2.826,11.34,1.1,2.763-1.272,4.754-4.093,5.919-8.381.391-1.79.689-3.6.91-5.408v-.008c.1-.825.171-1.652.251-2.478a59.024,59.024,0,0,0-.262-11.961c-.65-7.589-2.047-12.286-3.691-15.146a7.541,7.541,0,0,0-4.906-3.326c-5.312-.844-11.612,5.171-14.406,11.259a29.154,29.154,0,0,1,.469,5.282c-.007,5.4-1.393,10.1-3.564,13.082" fill="#fff"/><path d="M603.143,470.587a5.473,5.473,0,0,0-5.779-5.354h-.075c-2.72,0-4.919,0-7.686.059a105.618,105.618,0,0,1-.216,10.725,78.4,78.4,0,0,0,9.61-.035c3.027-.3,4.276-3.009,4.146-5.395" fill="#fff"/><path d="M426.753,249.745l-9.319,2.408-3.33,10.459a.658.658,0,0,1-.024.075l-8.957,28.136c0,.1,0,.186,0,.283.037,4.353.1,11.637,2.447,13a2.411,2.411,0,0,0,2.4-.3,204.765,204.765,0,0,1,31.512-23.685c9.707-5.043,11.813-4.2,12.559-3.136,1.194,1.7-1.287,5.4-7.375,10.988-2.432,2.217-4.791,4.55-7.048,6.961,3.221-1.514,7.121-3.258,9.055-4.116,5.509-2.42,8.95-2.859,9.956-1.271a1.859,1.859,0,0,1-.511,2.37c-2.352,2.048-5.555,4.491-8.652,6.854-2.176,1.66-4.4,3.355-6.337,4.923.259-.063.478-.114.648-.152,7.345-1.865,9.5-.8,10.014.425a1.847,1.847,0,0,1-.89,2.248c-2.558,1.554-6,3.381-9.328,5.148-3.984,2.116-8.1,4.3-10.859,6.092a151.011,151.011,0,0,0-21.208,14.8.736.736,0,0,1-.252.135,49.915,49.915,0,0,1-8,7.014,143.862,143.862,0,0,1-16.775,9.889l-4.332,13.6,68.561-18.742L488.858,233.7l-30.6,7.9a.733.733,0,0,1-.383.1l-9.316,2.408a.745.745,0,0,1-.408.132.687.687,0,0,1-.077-.007l-21.015,5.429a.737.737,0,0,1-.308.08" fill="#fff"/><path d="M321.852,221.846a.475.475,0,0,1,.054,0,4.046,4.046,0,0,0,3.236-1.755,45.794,45.794,0,0,1-7.009-3.378,3.914,3.914,0,0,0,3.719,5.131" fill="#fff"/><path d="M330.655,224.815a3.921,3.921,0,0,0,3.647-2.52,45.784,45.784,0,0,1-7.575-1.718,4.03,4.03,0,0,0,.057,1.023,3.961,3.961,0,0,0,3.871,3.215" fill="#fff"/><path d="M313.441,216.415a4.989,4.989,0,0,0,3.165-.793,18.739,18.739,0,0,1-4.894-6.753,3.984,3.984,0,0,0,1.729,7.546" fill="#fff"/><path d="M417.639,324.711q-.723.971-1.479,1.935a152.77,152.77,0,0,1,15.771-10.471c2.777-1.8,6.926-4.007,10.939-6.137,3.31-1.758,6.732-3.575,9.255-5.107.207-.124.311-.317.283-.387-.007-.014-.953-1.4-8.281.456-.655.147-1.976.472-3.643.923-.138.123-.286.25-.417.37-2.246,2.046-5.295,4.314-8.523,6.716-4.919,3.658-10.341,7.7-13.9,11.7" fill="#fff"/><path d="M451.33,230.1l-2.222,12.321,8.17-2.111,3.439-12.476Z" fill="#fff"/><path d="M457.136,290.783c.2-.172.26-.382.227-.435-.008-.013-1.159-1.2-8.082,1.841-2.7,1.2-9.252,4.131-12.359,5.72a129.668,129.668,0,0,0-9.891,12.669l-.451.725c-1.3,2.1-2.85,4.582-4.6,7.218,2.763-2.323,5.8-4.583,8.667-6.716,3.2-2.378,6.217-4.625,8.409-6.621.181-.165.38-.338.574-.509l.026-.024c2.393-2.107,5.69-4.626,8.9-7.074,3.078-2.348,6.262-4.776,8.579-6.794" fill="#fff"/><path d="M577.769,478.172c.043-.035.089-.068.133-.1-.028-.079-.057-.151-.084-.231-.013.113-.034.221-.049.333" fill="#fff"/><path d="M636.28,350.635l-1.041,6,5.391-2.817a.746.746,0,0,1,.7,0l5.325,2.816-.98-6.009a.751.751,0,0,1,.213-.655l4.281-4.219-6-.857a.753.753,0,0,1-.569-.417l-2.626-5.431-2.688,5.438a.75.75,0,0,1-.565.41l-5.991.855,4.339,4.217a.751.751,0,0,1,.217.666" fill="#8dc63f"/><path d="M607.039,350.635l-1.041,6,5.39-2.817a.746.746,0,0,1,.7,0l5.325,2.813-.981-6.009a.753.753,0,0,1,.217-.659l4.339-4.217-5.992-.852a.752.752,0,0,1-.567-.411l-2.693-5.452-2.694,5.453a.753.753,0,0,1-.566.41l-5.991.855,4.339,4.217a.751.751,0,0,1,.217.666" fill="#8dc63f"/><path d="M577.8,350.635l-1.041,6,5.391-2.817a.749.749,0,0,1,.7,0l5.39,2.815-1.041-6a.752.752,0,0,1,.216-.666l4.339-4.218-5.99-.855a.75.75,0,0,1-.565-.41l-2.7-5.451-2.7,5.455a.75.75,0,0,1-.565.41l-5.991.855,4.339,4.217a.751.751,0,0,1,.217.666" fill="#8dc63f"/><path d="M339.982,225.9a3.864,3.864,0,0,0,3.694-3.063,60.523,60.523,0,0,1-7.448-.253,3.752,3.752,0,0,0,3.754,3.316" fill="#fff"/><path d="M548.557,350.628l-.981,6.005,5.325-2.816a.755.755,0,0,1,.7,0l5.391,2.817-1.041-6a.751.751,0,0,1,.216-.665l4.34-4.217-5.991-.852a.751.751,0,0,1-.566-.411l-2.7-5.453-2.7,5.453a.751.751,0,0,1-.565.411l-5.99.855,4.339,4.217a.758.758,0,0,1,.218.659" fill="#8dc63f"/><path d="M536.216,52.767a7.906,7.906,0,0,0-5.617,2.325l-.016.016a7.96,7.96,0,0,0,.006,11.258L544.6,80.38l14.015-14.014A7.965,7.965,0,0,0,547.35,55.1l-2.211,2.288a.75.75,0,0,1-1.079,0l-2.217-2.3a7.9,7.9,0,0,0-5.622-2.326Z" fill="#40bde8"/><path d="M574.44,496.489v7.116a7.22,7.22,0,0,1,5.248-1.648l.391.015a7.337,7.337,0,0,1-5.639-5.483" fill="#fff"/><path d="M579.24,489.315a6.656,6.656,0,0,1-1.835-1.227,6.575,6.575,0,0,1-1.686-2.591,21.078,21.078,0,0,1-1.279,2.342V493.9a6.025,6.025,0,0,1,4.8-4.585" fill="#fff"/><path d="M604.222,483.989c-.051-2.819-1.99-5.711-6.209-5.821-1.647-.036-3.227-.134-4.754-.227-1.272-.079-2.592-.152-3.956-.2-.056,1.161-.114,2.368-.172,3.676a3.986,3.986,0,0,1-3.843,4.063c-2.247.06-4.915-1.6-6.812-5.942a5.1,5.1,0,0,0-.041,7.459,5.158,5.158,0,0,0,3.655,1.4c2.717.144,5,.3,7.02.436a84.179,84.179,0,0,0,10.561.331,4.822,4.822,0,0,0,4.551-5.171" fill="#fff"/><path d="M582.123,500.794a168.619,168.619,0,0,0,17.223,1.144,4.711,4.711,0,0,0,4.492-4.977c.005-2.773-1.846-5.658-5.991-5.849l-2.172-.1c-4.393-.2-8.542-.38-14.184-.439h-.1c-3.978,0-5.5,2.371-5.588,4.415-.117,2.626,2.007,5.462,6.291,5.8l.029,0" fill="#fff"/><path d="M519.391,350.635l-1.039,5.994,5.31-2.808a.747.747,0,0,1,.7,0l5.389,2.817-1.041-6a.749.749,0,0,1,.217-.665l4.339-4.218-5.988-.855a.753.753,0,0,1-.566-.41l-2.691-5.439L521.4,344.48a.753.753,0,0,1-.569.417l-5.991.855,4.339,4.217a.751.751,0,0,1,.217.666" fill="#8dc63f"/><path d="M501.406,327.006v41.247a10.14,10.14,0,0,0,10.128,10.128h62.158a.75.75,0,0,1,.75.75v78.034c1.012.054,2.114.123,3.349.2,8.125.512,10.924,1.28,11.662,6.428l1.094-.025v-84.63a.75.75,0,0,1,.75-.75h62.151a10.14,10.14,0,0,0,10.126-10.128v-41.17a10.146,10.146,0,0,0-10.121-10.168H568.495l-.005,0a.734.734,0,0,1-.234.038.751.751,0,0,1-.237-.04H511.534a10.1,10.1,0,0,0-10.128,10.083m127.988,17.987a.75.75,0,0,1,.606-.511l7.111-1.015,3.194-6.459a.69.69,0,0,1,.675-.418.749.749,0,0,1,.671.424l3.12,6.454,7.107,1.014a.75.75,0,0,1,.42,1.277l-5.082,5.01,1.161,7.116a.75.75,0,0,1-1.091.783l-6.31-3.337-6.387,3.339a.75.75,0,0,1-1.087-.793l1.232-7.109-5.15-5.005a.75.75,0,0,1-.19-.77m-29.242,0a.751.751,0,0,1,.607-.511l7.111-1.015,3.192-6.459a.75.75,0,0,1,1.345,0l3.19,6.459,7.113,1.011a.75.75,0,0,1,.417,1.281l-5.153,5.009,1.161,7.112a.75.75,0,0,1-1.091.784l-6.31-3.333-6.386,3.339a.75.75,0,0,1-1.087-.793l1.232-7.109-5.15-5.005a.752.752,0,0,1-.191-.77m-29.241,0a.75.75,0,0,1,.607-.511l7.111-1.015,3.193-6.459a.78.78,0,0,1,1.344,0l3.194,6.455,7.112,1.015a.751.751,0,0,1,.416,1.281l-5.151,5.006,1.233,7.108a.75.75,0,0,1-1.087.793l-6.388-3.336-6.388,3.34a.75.75,0,0,1-1.087-.793l1.232-7.109-5.15-5.005a.75.75,0,0,1-.191-.77m-29.242,0a.75.75,0,0,1,.607-.511l7.111-1.015,3.193-6.459a.781.781,0,0,1,1.344,0l3.193,6.459,7.112,1.011a.751.751,0,0,1,.417,1.281l-5.151,5.006,1.233,7.108a.751.751,0,0,1-1.087.793l-6.387-3.339-6.311,3.337a.75.75,0,0,1-1.091-.784l1.161-7.108-5.154-5.009a.749.749,0,0,1-.19-.77m-29.164,0a.75.75,0,0,1,.606-.511l7.107-1.014,3.118-6.454a.753.753,0,0,1,.672-.424h0a.749.749,0,0,1,.672.418l3.2,6.459,7.109,1.015a.75.75,0,0,1,.416,1.281l-5.15,5.006,1.232,7.108a.75.75,0,0,1-1.086.793l-6.386-3.339-6.312,3.337a.75.75,0,0,1-1.09-.791l1.233-7.109-5.151-5.005a.749.749,0,0,1-.19-.77" fill="#fff"/><path d="M403.476,287.418c-.222-1.992-.662-6-1.353-6.379-.174.047-1.476.7-4.786,9.713-4.175,11.469-7.82,19.477-12.7,23.334h0c-.349.276-.7.534-1.067.768a.707.707,0,0,1-.09.049,17.009,17.009,0,0,1-9.959,1.309c-4.693,10.764-7.839,28.857-5.912,39.348a142.4,142.4,0,0,0,34.8-17.4,57.442,57.442,0,0,0,11.815-11.478,24.516,24.516,0,0,1,2.237-2.9c3.567-4.788,6.57-9.609,8.845-13.271l.469-.753a131.419,131.419,0,0,1,10.258-13.116,126.987,126.987,0,0,1,9.623-9.777c6.7-6.144,7.428-8.634,7.158-9.022-.01-.014-1.252-1.272-10.594,3.582a203.292,203.292,0,0,0-31.3,23.545.715.715,0,0,1-.138.1c-1.521.858-2.852.971-3.959.33-3.091-1.788-3.152-9.009-3.2-14.281l0-.319c0-.011,0-.021,0-.032a25.553,25.553,0,0,0-.146-3.351" fill="#fff"/><path d="M116.393,327.242c-33.833-5.692-92.657-7.578-114.177,1.972,2.9,2.107,6.275,4.5,10.022,7.063,19.708-6.172,71.361-3.465,112.11,0Z" fill="#fff"/><path d="M487.176,518.491v15.331a25.65,25.65,0,0,0,25.583,25.623h60.182v-42.07c-14.964.274-34.537.485-51.849.672-15.107.163-28.221.3-33.916.444" fill="#fff"/><path d="M425.743,481.049l-60.114-118.4a400.889,400.889,0,0,1-83.368-19.633A25.748,25.748,0,0,1,276,339.691c-9.716,4.419-33.834,21.34-54.768,84.016a.747.747,0,0,1-.534.491.757.757,0,0,1-.7-.192l-80.281-78.38c-1.469.552-2.914,1.148-4.338,1.774a.727.727,0,0,1-.113.148.735.735,0,0,1-.607.169,83.248,83.248,0,0,0-19.6,12.367L158.17,400.4a.75.75,0,1,1-1.026,1.1l-43.228-40.422a82.65,82.65,0,0,0-16.668,20.148.747.747,0,0,1-.127.567.731.731,0,0,1-.336.248,83.575,83.575,0,0,0-9.016,23.145q7.634,6.681,15.237,13.314a.733.733,0,0,1,.338.294c32.388,28.246,64.586,55.882,98.274,82.769a40.713,40.713,0,0,0,54.714-3.832,478.519,478.519,0,0,0,54.915-69.419c.009-.016.009-.034.019-.049a246.748,246.748,0,0,0,13.28-23.811.75.75,0,0,1,1.424.346L324.9,448.552l27.132,44.556a.751.751,0,0,1,.034.718c-15.775,32.49-38.564,69.356-69.667,112.7a86.663,86.663,0,0,0,15.346,19.469.731.731,0,0,1,.437.4q1.881,1.755,3.873,3.4a.749.749,0,0,1,.233.1.73.73,0,0,1,.24.288q1.717,1.394,3.513,2.71l32.325-50.012a.75.75,0,0,1,1.26.814l-32.362,50.069c11.4,8.014,25.217,13.653,41.617,17a.761.761,0,0,1,.22.043q4.651.942,9.576,1.642,7.758-11.977,15.1-24.251a.738.738,0,0,1,.372-.626,809.833,809.833,0,0,0,53.333-106.342,48.807,48.807,0,0,0-1.739-40.176M303.233,362.515A54.583,54.583,0,0,1,271.2,372.9a53.914,53.914,0,0,1-9.885-.911.75.75,0,1,1,.275-1.474A53.046,53.046,0,0,0,302.35,361.3a.75.75,0,0,1,.883,1.213" fill="#fff"/><path d="M512.756,417.684a25.581,25.581,0,0,0-25.58,25.579V471.3c6.84.545,47.361,1.53,68.9,1.233,2.782-.039,3.6-2.9,4.392-6.633a10.958,10.958,0,0,1,1.035-3.362c3.21-4.917,4.91-5.7,11.442-5.444V417.684H512.756Z" fill="#fff"/><path d="M286.34,654.977C289.5,689.2,302.775,746.571,317.573,764.8q2.279-5.613,4.332-11.307c-11.665-18.234-22.958-74.934-28.862-108.5Z" fill="#fff"/><path d="M652.23,417.672H592.046v46.069c1.758-.029,3.4-.036,5.326-.008a6.982,6.982,0,0,1,7.269,6.772,6.5,6.5,0,0,1-3.94,6.6,7.244,7.244,0,0,1,5.021,6.854,6.345,6.345,0,0,1-4.458,6.443,7.166,7.166,0,0,1,4.073,6.558c0,3-1.876,6.3-5.97,6.474-.532-.008-1.064-.031-1.6-.044a6.976,6.976,0,0,1,4.83,6.93,5.941,5.941,0,0,1-5.935,6.069c-1.542-.066-3.083-.16-4.624-.271v43.324h60.22A25.549,25.549,0,0,0,677.81,533.93V443.25a25.578,25.578,0,0,0-25.58-25.578" fill="#fff"/><path d="M576.344,470.755c-.012-.1-.023-.21-.034-.316a.75.75,0,0,1,1.491-.16q.018.156.033.312c1.02,9.225,4.479,13.392,7.324,13.392h.086a2.51,2.51,0,0,0,2.389-2.63c.079-1.8.16-3.464.234-4.991.821-16.8.821-16.8-10.171-17.5-1.486-.094-2.775-.175-3.914-.233a.565.565,0,0,1-.091.019.7.7,0,0,1-.153-.031c-6.816-.329-7.881.295-10.783,4.741a10.782,10.782,0,0,0-.823,2.852c-.691,3.276-1.637,7.763-5.838,7.823-22,.3-61.552-.666-68.919-1.229v44.186c5.729-.14,18.822-.282,33.9-.444,17.32-.187,36.9-.4,51.865-.672V509.9a6.184,6.184,0,0,1-.347-2.509,5.72,5.72,0,0,1,.347-1.586V489.911a19.052,19.052,0,0,1-8.974,6.044.729.729,0,0,1-.229.036.75.75,0,0,1-.23-1.464,17.54,17.54,0,0,0,9.452-7.178.725.725,0,0,1,.3-.5c2.6-4.239,3.731-9.777,3.084-16.093" fill="#fff"/><path d="M574.44,512.3v47.145h16.1V516c-3.581-.292-7.149-.691-10.672-1.22a8.663,8.663,0,0,1-5.431-2.476" fill="#fff"/><path d="M601.1,510.278a5.663,5.663,0,0,0-5.651-5.829l-2.527-.191c-4.128-.315-8.027-.613-13.291-.8-.116,0-.231-.006-.343-.006-3.614,0-5.063,2.154-5.2,4.048a4.639,4.639,0,0,0,.265,1.893.632.632,0,0,1,.035.081c.7,1.851,2.579,3.479,5.659,3.815l.031,0a158.315,158.315,0,0,0,16.608,1.6,4.434,4.434,0,0,0,4.415-4.614" fill="#fff"/><path d="M221.069,259.717a25.639,25.639,0,0,0,.4-4.445V207.623c-6.234.377-49.083,2.941-63.925,2.941h-.58c-5.129-.027-15.8-.082-19.342-6.991-3.109-6.069-6-26.283-5.744-30.319a.8.8,0,0,0-.791-.964c-1.878-.188-6.539,3.026-8.051,13.822-.6,4.283-1.079,8.161-1.46,11.523,0,.024.01.046.008.07-.122,1.443-.254,2.692-.427,3.8-.638,6.174-.867,9.83-.871,9.89a.77.77,0,0,1-.065.262c-2.73,6.044-1.693,13.99,2.581,19.774,3.364,4.553,8.081,6.81,12.944,6.2a.75.75,0,1,1,.19,1.488,14.215,14.215,0,0,1-1.777.113c-4.77,0-9.273-2.451-12.563-6.9-4.558-6.168-5.675-14.651-2.8-21.157.031-.465.144-2.1.372-4.675-1.537,1.553-4.148,2.086-8.84,2.086-.357,0-.733,0-1.115-.01,3.5,1.089,4.813,3.849,4.513,6.341a6.675,6.675,0,0,1-4.867,5.48c4.218.542,6.016,3.408,5.906,6.119a6.642,6.642,0,0,1-4.284,5.791,5.86,5.86,0,0,1,3.755,5.482,6.985,6.985,0,0,1-5.195,6.536,5.652,5.652,0,0,1,3.782,4.937c.237,3.236-2.17,6.8-7.224,7.383l-.03.006c-.616.1-1.237.179-1.857.267,19.312.735,59.857,1.58,88.657,2.181,13.332.278,23.981.5,28.7.632" fill="#fff"/><path d="M331.072,169.207c2.049.608,4.114-.494,5.827-3.1a24.808,24.808,0,0,0-.015-23.437c-1.343-2.074-2.95-3.188-4.6-3.217h0a4.862,4.862,0,0,0-2.13.585l-.006,0a4.874,4.874,0,0,0-.559.36c-2.706,1.96-5.067,6.9-5.067,14,0,8.442,3.3,13.839,6.556,14.808" fill="#fff"/><path d="M338.175,141.9a26.32,26.32,0,0,1,.031,24.934.643.643,0,0,1-.033.057,11.019,11.019,0,0,1-2.116,2.457H341.9a.7.7,0,0,1,.12-.019c.025,0,.046.015.071.019h.88c4.218,0,7.659-6.713,7.67-14.963.008-5.639-1.609-10.766-4.219-13.381a7.24,7.24,0,0,0-.639-.551,4.51,4.51,0,0,0-2.725-1.009h-6.988a10.91,10.91,0,0,1,2.1,2.456" fill="#fff"/><path d="M195.891,280.816a25.617,25.617,0,0,0,24.867-19.607c-4.842-.132-15.346-.351-28.419-.624-36.118-.753-90.7-1.891-98.832-2.72a.744.744,0,0,1-.289-.093c-.228.005-.456.019-.683.023a5.948,5.948,0,0,1-5.959-6.069,7,7,0,0,1,3.623-6.409c-.477-.019-.95-.043-1.418-.081-4.079-.319-5.811-3.69-5.694-6.686a7.262,7.262,0,0,1,3.236-5.821c-.51-.036-.978-.077-1.4-.125a5.876,5.876,0,0,1-5.263-6.572,7.154,7.154,0,0,1,7.824-6.634l.589.019c.982.032,2.088.067,3.276.108-.977-.127-1.957-.252-2.929-.4a6,6,0,0,1-4.757-7.141c.534-3.222,3.354-6.422,8.326-5.827l.037,0,4.837.291c18.526,1.126,21.7,1.313,22.735-4.484.43-4.224,1.057-9.7,1.949-16.068,1.617-11.554,6.817-15.4,9.687-15.107a2.288,2.288,0,0,1,2.138,2.551c-.24,3.836,2.638,23.8,5.582,29.542,3.123,6.1,13.181,6.15,18.015,6.175h.575c14.863,0,58.017-2.586,63.921-2.944V184.874a25.574,25.574,0,0,0-25.507-25.582l-139.577-.017A25.613,25.613,0,0,0,30.8,184.854V255.2a25.643,25.643,0,0,0,25.584,25.614H195.891Z" fill="#fff"/><path d="M87.438,220.9a5.718,5.718,0,0,0-6.278,5.246,4.379,4.379,0,0,0,3.938,4.971c2.993.346,8.655.35,14.651.353,2.315,0,4.672,0,6.934.025h.093c4.129,0,6.39-2.53,6.492-5.049.079-1.961-1.213-4.349-5.115-4.629-6.1-.441-14.879-.727-20.125-.9Z" fill="#fff"/><path d="M378.167,209.769a16.645,16.645,0,0,1-5.729,5.5,3.917,3.917,0,0,0,3.074,1.5,4.062,4.062,0,0,0,2.655-7" fill="#fff"/><path d="M366.963,220.853a3.914,3.914,0,0,0,3.895-3.92v-.026a3.553,3.553,0,0,0-.077-.848c-2.334,1.086-4.739,2.065-7.169,2.918a3.922,3.922,0,0,0,3.338,1.876Z" fill="#fff"/><path d="M88.075,251.68a4.444,4.444,0,0,0,4.458,4.614,89.1,89.1,0,0,0,12.733-1.128.926.926,0,0,1,.1-.018c4.157-.455,6.144-3.258,5.96-5.792-.138-1.892-1.588-4.045-5.2-4.045-.114,0-.228,0-.345.006-1.841.067-3.213.108-4.355.143-2.79.084-4.19.127-7.7.391a5.665,5.665,0,0,0-5.652,5.829" fill="#fff"/><path d="M349.194,225.558h.009a3.867,3.867,0,0,0,3.866-3.57c-.022-.054-.034-.114-.055-.169a62.478,62.478,0,0,1-7.548.942,3.867,3.867,0,0,0,3.728,2.8" fill="#fff"/><path d="M354.592,221.711a3.916,3.916,0,0,0,3.516,2.171h.011a3.943,3.943,0,0,0,3.932-3.955v-.009a2.789,2.789,0,0,0-.017-.331,72.221,72.221,0,0,1-7.453,1.962c0,.041.014.09.014.128v0c0,.011,0,.021,0,.032" fill="#fff"/><path d="M112.238,214.723c.234-1.937-.852-4.413-4.683-5.011-5.3-.83-9.251-1.3-13.436-1.79l-2.226-.264-.034,0a.073.073,0,0,1-.014,0l-.031,0a8.307,8.307,0,0,0-.987-.061,5.47,5.47,0,0,0-5.681,4.645,4.486,4.486,0,0,0,3.545,5.42,163.1,163.1,0,0,0,16.564,1.591l.031,0c4.144.351,6.646-2.005,6.952-4.523" fill="#fff"/><path d="M84.586,238.609c-.093,2.379,1.205,4.888,4.313,5.132a78.617,78.617,0,0,0,10.092-.137c2.072-.106,4.429-.227,7.2-.324,4.3-.15,6.547-2.882,6.548-5.5,0-2.048-1.434-4.49-5.476-4.632-3.94-.138-7.129-.165-10.229-.165-1.028,0-2.046,0-3.078.006l-3.124.006a5.837,5.837,0,0,0-6.245,5.618" fill="#fff"/><path d="M61.973,622.477l28.169-4.057L102.7,592.93l12.558,25.489,28.169,4.057-20.362,19.9,4.823,28.016L102.7,657.152,77.515,670.4l4.823-28.016Z" fill="#8dc63f"/><path d="M190.344,107.729H171.635V89.02a1.5,1.5,0,0,0-3,0v18.709H149.85a1.5,1.5,0,0,0,0,3h18.785v18.785a1.5,1.5,0,0,0,3,0V110.729h18.709a1.5,1.5,0,0,0,0-3" fill="#8dc63f"/><path d="M545,133.369a79.088,79.088,0,0,1-17.266-1.9,76.045,76.045,0,0,1-25.41-10.71l-30.1,11.9a.749.749,0,0,1-.973-.97L482.9,101.848a61.63,61.63,0,0,1-11.007-35.779C472.308,29.5,504.969,0,544.85,0c.252,0,.5,0,.753,0,40.273.407,72.742,30.658,72.38,67.435-.18,19.33-9.026,36.913-24.908,49.513A77.582,77.582,0,0,1,545,133.369m-42.592-14.205a.753.753,0,0,1,.415.125A74.547,74.547,0,0,0,528.064,130c22.536,5.044,46.493-.275,64.079-14.228,15.52-12.312,24.164-29.483,24.34-48.351C616.837,31.473,585.034,1.9,545.589,1.5c-.245,0-.494,0-.74,0-39.065,0-71.05,28.831-71.46,64.584a60.153,60.153,0,0,0,10.965,35.233.747.747,0,0,1,.084.7l-11.164,28.614,28.8-11.391a.742.742,0,0,1,.334-.079" fill="#0f2852"/><path d="M592.184,623.623H577.653a12.139,12.139,0,0,1-12.106-12.151V596.986a1.5,1.5,0,0,0-3,0V611.5A12.169,12.169,0,0,1,550.4,623.623H535.917a1.5,1.5,0,0,0,0,3h14.461a.087.087,0,0,0,.018,0,12.178,12.178,0,0,1,12.15,12.163v14.467a1.5,1.5,0,0,0,3,0v-14.5a12.146,12.146,0,0,1,12.166-12.126h14.471a1.5,1.5,0,0,0,0-3M567,628.041a15.149,15.149,0,0,0-2.957,4.147,15.316,15.316,0,0,0-7.075-7.069,15.248,15.248,0,0,0,7.066-7.071,15.255,15.255,0,0,0,7.069,7.075,15.16,15.16,0,0,0-4.1,2.918" fill="#8dc63f"/><path d="M671.378,424.1a26.907,26.907,0,0,0-19.15-7.93H592.046V379.889h61.4a11.642,11.642,0,0,0,11.626-11.628v-41.2a11.642,11.642,0,0,0-11.62-11.636H568.779a240.6,240.6,0,0,0-183.914-160.66c.133-5.791-1.406-11.27-4.014-14.137a5.283,5.283,0,0,0-2.858-1.746A23.236,23.236,0,0,0,358.581,120.5a23.763,23.763,0,0,0,1.459-11.6c-1.96-15.584-15.708-32.27-33.05-32.27-17.583,0-28.38,21.926-28.38,37.646,0,14.661,11.678,24.34,29.84,24.841-.022.091-.042.185-.062.277-2.742,2.17-4.678,6.556-5.218,11.917a239.676,239.676,0,0,0-100.409,30.224,27.09,27.09,0,0,0-26.834-23.748l-139.543-.017h0A27.115,27.115,0,0,0,29.3,184.857V255.2a27.145,27.145,0,0,0,27.083,27.114h69.847a237.949,237.949,0,0,0-16.655,42.364C74.86,319.8,20.584,318.424.416,328.4a.75.75,0,0,0-.109,1.278c3.223,2.356,7.09,5.11,11.45,8.085l.005,0c16.9,11.537,41.3,26.462,65.252,34.965a61.927,61.927,0,0,1,18.36,8.749,85.16,85.16,0,0,0-9.167,23.809.753.753,0,0,0,.239.726q7.79,6.819,15.55,13.588A240.522,240.522,0,0,0,297,627.357q1.857,1.742,3.819,3.375l-7.883,11.732a.732.732,0,0,0-.172.256l-7.822,11.642a.743.743,0,0,0-.125.486c3.12,34.252,16.46,93.8,32.416,111.882a.748.748,0,0,0,.562.254.768.768,0,0,0,.125-.011.753.753,0,0,0,.57-.455A322,322,0,0,0,340.439,681.4l.039-.474c.723-8.822,1.4-17.155,6.2-24.6l2.533-3.979q4.731.945,9.739,1.644a.722.722,0,0,0,.1.007.748.748,0,0,0,.629-.342q7.935-12.233,15.431-24.775a241.239,241.239,0,0,0,135.5-68.037c.71.057,1.425.095,2.149.1h60.691a.75.75,0,0,0,.242.048h17.6a.75.75,0,0,0,.242-.048h60.729A27.046,27.046,0,0,0,679.31,533.9V443.25a26.9,26.9,0,0,0-7.932-19.148m-98.437,32.992c-6.532-.257-8.232.528-11.442,5.445a10.939,10.939,0,0,0-1.035,3.362c-.787,3.734-1.61,6.593-4.391,6.633-21.536.3-62.057-.688-68.9-1.233V443.262a25.583,25.583,0,0,1,25.58-25.579h60.186ZM487.175,472.8c7.367.562,46.922,1.53,68.919,1.229,4.2-.06,5.148-4.547,5.838-7.824a10.784,10.784,0,0,1,.823-2.851c2.9-4.446,3.968-5.07,10.784-4.741a.7.7,0,0,0,.152.031.717.717,0,0,0,.092-.019c1.138.058,2.427.139,3.913.233,10.992.693,10.992.693,10.172,17.5-.075,1.527-.156,3.186-.235,4.99a2.509,2.509,0,0,1-2.388,2.63l-.086,0c-2.846,0-6.3-4.167-7.325-13.392-.009-.1-.021-.208-.033-.312a.75.75,0,0,0-1.491.16c.011.106.022.211.034.316.647,6.316-.487,11.854-3.084,16.092a.733.733,0,0,0-.3.5,17.536,17.536,0,0,1-9.452,7.178.75.75,0,0,0,.23,1.464.759.759,0,0,0,.229-.036,19.053,19.053,0,0,0,8.974-6.045V505.8a5.72,5.72,0,0,0-.347,1.586,6.2,6.2,0,0,0,.347,2.509v5.977c-14.962.274-34.545.486-51.864.673-15.078.162-28.172.3-33.9.444Zm87.265,23.684a7.337,7.337,0,0,0,5.639,5.483l-.391-.016a7.219,7.219,0,0,0-5.248,1.649Zm0-8.65a21.178,21.178,0,0,0,1.278-2.343,6.571,6.571,0,0,0,1.687,2.591,6.656,6.656,0,0,0,1.835,1.227,6.025,6.025,0,0,0-4.8,4.585Zm3.462-9.77c-.044.035-.09.068-.133.1.015-.112.036-.221.049-.333.027.08.056.152.084.23m-3.462,81.376V512.3a8.664,8.664,0,0,0,5.431,2.477c3.523.528,7.091.927,10.671,1.22v43.449Zm5.639-46.155-.031,0c-3.08-.336-4.962-1.964-5.659-3.815a.632.632,0,0,0-.035-.081,4.639,4.639,0,0,1-.265-1.893c.138-1.894,1.587-4.048,5.2-4.048.113,0,.228,0,.344.006,5.264.19,9.163.488,13.291.8l2.527.191a5.663,5.663,0,0,1,5.651,5.829,4.434,4.434,0,0,1-4.415,4.614,158.315,158.315,0,0,1-16.608-1.6m2.043-12.5-.029,0c-4.284-.338-6.407-3.173-6.291-5.8.091-2.045,1.611-4.416,5.588-4.416h.1c5.641.059,9.791.244,14.183.439l2.172.1c4.146.191,6,3.075,5.991,5.848a4.709,4.709,0,0,1-4.492,4.977,168.663,168.663,0,0,1-17.223-1.143m6.988-11.965c-2.02-.137-4.3-.293-7.02-.437A5.154,5.154,0,0,1,578.435,487a5.1,5.1,0,0,1,.041-7.459c1.9,4.345,4.565,6,6.813,5.943a3.987,3.987,0,0,0,3.842-4.063c.058-1.309.116-2.516.172-3.676,1.364.046,2.684.12,3.956.2,1.528.094,3.107.191,4.754.228,4.219.109,6.158,3,6.209,5.821a4.821,4.821,0,0,1-4.551,5.17,84.335,84.335,0,0,1-10.561-.33m.277-12.812a105.618,105.618,0,0,0,.216-10.725c2.767-.059,4.966-.059,7.686-.059h.075a5.473,5.473,0,0,1,5.779,5.355c.13,2.385-1.119,5.092-4.146,5.395a78.4,78.4,0,0,1-9.61.035m74.187-148.926v41.17a10.14,10.14,0,0,1-10.126,10.128H591.3a.75.75,0,0,0-.75.75v84.63l-1.093.025c-.738-5.148-3.538-5.916-11.663-6.428-1.235-.078-2.337-.147-3.349-.2V379.131a.75.75,0,0,0-.75-.75H511.534a10.14,10.14,0,0,1-10.128-10.128V327.006a10.1,10.1,0,0,1,10.128-10.083h56.484a.755.755,0,0,0,.237.04.741.741,0,0,0,.235-.038l0,0h84.959a10.146,10.146,0,0,1,10.121,10.168M383.336,155.573c-.4,7.114-3.465,13.21-7.042,14.347.009-.077.014-.154.022-.231.04-.4.08-.793.113-1.191a131.078,131.078,0,0,0,.086-24.653q-.131-1.8-.3-3.6l1.182.042a3.562,3.562,0,0,1,2.349,1.346c2.037,2.239,3.938,7.418,3.594,13.938m-26.814,27.886a.672.672,0,0,0-.069-.05,27,27,0,0,1-4.614-2.681.75.75,0,0,0-1.1.953l4.1,7.921a15.89,15.89,0,0,0,10.921,16.184c.671.232,1.58.457,2.732.741a67.968,67.968,0,0,1,8.353,2.511,15.15,15.15,0,0,1-5.755,5.258.719.719,0,0,0-.189.048,77.735,77.735,0,0,1-8.569,3.487.751.751,0,0,0-.267.164,70.689,70.689,0,0,1-8.3,2.185.734.734,0,0,0-.155,0,60.916,60.916,0,0,1-9.071,1.134.194.194,0,0,1-.023.006c-.014,0-.029-.007-.042-.006a58.925,58.925,0,0,1-8.85-.3.757.757,0,0,0-.289-.1,44.319,44.319,0,0,1-8.956-2.032.754.754,0,0,0-.249-.031,44.1,44.1,0,0,1-7.91-3.84,17.221,17.221,0,0,1-5.284-7.128c1.3-.332,2.56-.636,3.765-.926,3.944-.949,7.059-1.7,9-2.872a32.661,32.661,0,0,0,12.452-14.719,55,55,0,0,0,4.524-18.516h.3a6.467,6.467,0,0,0,4.645-2.225,35.646,35.646,0,0,0,10.92,6.9.764.764,0,0,0,.25.048,3.862,3.862,0,1,0,.563-1.27.739.739,0,0,0-.254-.171,34.1,34.1,0,0,1-10.518-6.66c2.17-2.984,3.557-7.684,3.564-13.082a29.063,29.063,0,0,0-.47-5.282c2.8-6.088,9.1-12.1,14.407-11.259a7.546,7.546,0,0,1,4.906,3.326c1.644,2.86,3.041,7.557,3.69,15.146a59.027,59.027,0,0,1,.263,11.961c-.08.826-.155,1.653-.251,2.478v.008c-.222,1.813-.52,3.618-.91,5.408-1.165,4.288-3.157,7.108-5.919,8.381-3.744,1.727-8.22.366-11.34-1.1m92.586,58.961L451.33,230.1l9.386-2.265-3.439,12.476Zm-1.6.413-3.877,1a1.216,1.216,0,0,0-.072-.19l-2.528-4.139a17.4,17.4,0,0,1,7.124-.258Zm-6.4,1.654-12.424,3.21a24.335,24.335,0,0,1,9.473-7.267Zm-14.354,5.258a.757.757,0,0,0,.309-.08l21.014-5.429c.026,0,.052.007.078.007a.734.734,0,0,0,.407-.133l9.316-2.407a.74.74,0,0,0,.383-.1l30.6-7.9L450.709,344.146l-68.561,18.742,4.332-13.6a143.781,143.781,0,0,0,16.775-9.889,49.965,49.965,0,0,0,8-7.014.718.718,0,0,0,.252-.135,151.217,151.217,0,0,1,21.208-14.8c2.755-1.788,6.875-3.976,10.86-6.091,3.328-1.767,6.769-3.6,9.328-5.148a1.845,1.845,0,0,0,.889-2.248c-.511-1.224-2.668-2.29-10.013-.426-.171.039-.389.09-.649.152,1.94-1.567,4.161-3.262,6.337-4.922,3.1-2.363,6.3-4.806,8.653-6.855a1.858,1.858,0,0,0,.51-2.369c-1.005-1.588-4.447-1.149-9.956,1.271-1.933.858-5.834,2.6-9.054,4.115,2.256-2.41,4.616-4.743,7.047-6.96,6.088-5.585,8.57-9.283,7.375-10.988-.746-1.067-2.852-1.907-12.558,3.135A204.78,204.78,0,0,0,409.97,303.8a2.409,2.409,0,0,1-2.4.3c-2.35-1.359-2.41-8.643-2.448-13,0-.1,0-.188,0-.283l8.957-28.136a.658.658,0,0,0,.024-.075l3.33-10.459ZM367.606,355.56c-1.927-10.49,1.219-28.584,5.912-39.348a17.017,17.017,0,0,0,9.959-1.308.861.861,0,0,0,.09-.05c.363-.234.718-.492,1.067-.768h0c4.882-3.858,8.527-11.866,12.7-23.335,3.31-9.018,4.612-9.665,4.787-9.713.69.38,1.13,4.388,1.352,6.379a25.682,25.682,0,0,1,.147,3.351c0,.011,0,.022,0,.032,0,.107,0,.211,0,.319.044,5.272.105,12.494,3.2,14.281,1.107.641,2.438.529,3.959-.329a.812.812,0,0,0,.138-.1,203.236,203.236,0,0,1,31.3-23.546c9.342-4.853,10.584-3.6,10.594-3.581.27.387-.462,2.877-7.158,9.021a126.987,126.987,0,0,0-9.623,9.777,131.534,131.534,0,0,0-10.258,13.116l-.469.754c-2.275,3.662-5.278,8.482-8.845,13.27a24.514,24.514,0,0,0-2.237,2.9,57.416,57.416,0,0,1-11.815,11.478,142.363,142.363,0,0,1-34.8,17.4m50.033-30.849c3.564-4.005,8.985-8.044,13.9-11.7,3.229-2.4,6.278-4.67,8.524-6.717.131-.119.279-.246.417-.369,1.667-.451,2.988-.777,3.642-.924,7.329-1.86,8.275-.469,8.282-.455.028.07-.076.262-.284.387-2.522,1.532-5.945,3.349-9.254,5.106-4.013,2.131-8.163,4.334-10.939,6.138a152.444,152.444,0,0,0-15.771,10.471q.756-.965,1.479-1.935m22.019-20.06-.027.024c-.194.171-.393.344-.574.509-2.191,2-5.212,4.243-8.409,6.621-2.867,2.133-5.9,4.393-8.667,6.716,1.748-2.636,3.293-5.117,4.6-7.218l.45-.725a129.672,129.672,0,0,1,9.891-12.669c3.107-1.589,9.66-4.522,12.359-5.72,6.924-3.04,8.074-1.854,8.082-1.841.033.053-.029.263-.227.435-2.317,2.018-5.5,4.446-8.579,6.794-3.209,2.448-6.506,4.968-8.9,7.074M404.891,286.6c-.48-4.259-.942-6.847-2.556-7.044-1.434-.189-3.067,1.578-6.407,10.679-3.689,10.135-7.092,17.829-11.239,21.808-.8-3.377-2.1-5.286-3.87-5.663a2.947,2.947,0,0,0-.469-.059l-4.816-.787,7.75-13.922c8.569-15.444,7.149-36.866,7.133-37.08a.75.75,0,0,0-1.5.106c.015.211,1.4,21.2-6.949,36.245l-8.012,14.393-52.524-8.587,6.126-30.853a.75.75,0,1,0-1.471-.292l-6.277,31.614a.75.75,0,0,0,.614.886l57.122,9.339a12.4,12.4,0,0,0-2.519,2.829,30.956,30.956,0,0,0-2.571,4.714.743.743,0,0,0-.136.294c0,.006,0,.013,0,.019-5.54,12.529-9.022,35.147-5.022,44.748a8.3,8.3,0,0,0,.765,1.439,399.416,399.416,0,0,1-85.3-19.825,24.626,24.626,0,0,1-15.893-26.586c4.191-28.732,13.314-76.757,21.267-91.3,4.7-8.609,13.231-12.482,21.188-14.84a5.478,5.478,0,0,0,4.041,9.034c.175.015.351.021.527.021a6.438,6.438,0,0,0,2.579-.547,5.247,5.247,0,0,0-.036.547,5.42,5.42,0,0,0,5.342,5.413c.023,0,.048,0,.071,0h.007a5.541,5.541,0,0,0,3.5-1.3,5.458,5.458,0,0,0,5.3,4.265h.006a5.4,5.4,0,0,0,4.4-2.312,5.234,5.234,0,0,0,4.888,3.4H340a5.348,5.348,0,0,0,4.631-2.9,5.344,5.344,0,0,0,4.557,2.558h.013a5.391,5.391,0,0,0,4.988-3.346,5.412,5.412,0,0,0,3.916,1.67h.016a5.44,5.44,0,0,0,5.314-4.348,5.394,5.394,0,0,0,3.513,1.319h.016a5.4,5.4,0,0,0,5.363-5.136,5.455,5.455,0,0,0,3.2,1.055,5.562,5.562,0,0,0,5.27-6.757,5.615,5.615,0,0,0-.293-.9c7.815,3.755,16.811,10.775,22.542,24.831,1.523,3.725,2.81,7.869,4.055,11.878a114.525,114.525,0,0,0,5.477,15.128Zm-79.749-66.509a4.046,4.046,0,0,1-3.236,1.755l-.054,0a3.914,3.914,0,0,1-3.719-5.131,45.794,45.794,0,0,0,7.009,3.378m-13.43-11.225a18.739,18.739,0,0,0,4.894,6.753,4.983,4.983,0,0,1-3.165.793,3.984,3.984,0,0,1-1.729-7.546m22.59,13.427a3.921,3.921,0,0,1-3.647,2.52,3.961,3.961,0,0,1-3.871-3.216,4.02,4.02,0,0,1-.057-1.022,45.884,45.884,0,0,0,7.575,1.718m1.926.29a60.328,60.328,0,0,0,7.448.254,3.864,3.864,0,0,1-3.694,3.063,3.752,3.752,0,0,1-3.754-3.317m25.806-3a3.014,3.014,0,0,1,.016.331v.009a3.942,3.942,0,0,1-3.931,3.955h-.012a3.916,3.916,0,0,1-3.516-2.171c0-.011,0-.021,0-.032v0c0-.038-.011-.087-.014-.128a72.237,72.237,0,0,0,7.454-1.962m-9.02,2.232c.021.055.033.115.055.169a3.867,3.867,0,0,1-3.866,3.57h-.009a3.867,3.867,0,0,1-3.728-2.8,62.5,62.5,0,0,0,7.548-.942m17.767-5.76a3.553,3.553,0,0,1,.076.848v.026a3.913,3.913,0,0,1-3.895,3.92h-.012a3.923,3.923,0,0,1-3.338-1.876c2.429-.854,4.835-1.832,7.169-2.918m8.553-4.221a4.061,4.061,0,0,1-3.823,4.935,3.92,3.92,0,0,1-3.074-1.5,16.645,16.645,0,0,0,5.729-5.5,4.032,4.032,0,0,1,1.168,2.069M338.172,166.9a.64.64,0,0,0,.034-.056,26.323,26.323,0,0,0-.032-24.934,10.91,10.91,0,0,0-2.1-2.456h6.988a4.51,4.51,0,0,1,2.725,1.009,6.785,6.785,0,0,1,.639.551c2.611,2.614,4.227,7.741,4.219,13.38-.011,8.251-3.452,14.963-7.67,14.963H342.1a.585.585,0,0,0-.072-.018.7.7,0,0,0-.12.018h-5.847a11.044,11.044,0,0,0,2.115-2.457m-8.589-26.5a4.881,4.881,0,0,1,.559-.361l.005,0a4.856,4.856,0,0,1,2.131-.585h0c1.651.028,3.257,1.143,4.6,3.217A24.8,24.8,0,0,1,336.9,166.1c-1.713,2.61-3.778,3.712-5.827,3.1-3.258-.969-6.556-6.366-6.556-14.808,0-7.107,2.361-12.041,5.067-14M91.814,207.648l.031,0a.073.073,0,0,1,.014,0l.034,0,2.226.264c4.185.493,8.138.96,13.436,1.789,3.831.6,4.917,3.074,4.683,5.011-.306,2.518-2.808,4.875-6.952,4.524l-.032,0a163.625,163.625,0,0,1-16.563-1.591,4.487,4.487,0,0,1-3.545-5.421,5.468,5.468,0,0,1,5.681-4.644,8.3,8.3,0,0,1,.987.06m16.339,14.164c3.9.281,5.194,2.669,5.115,4.63-.1,2.519-2.363,5.049-6.492,5.049h-.093c-2.262-.022-4.619-.023-6.935-.025-6,0-11.657-.007-14.65-.353a4.38,4.38,0,0,1-3.938-4.972,5.718,5.718,0,0,1,6.278-5.245l.59.019c5.246.171,14.026.456,20.125.9m-14.2,11.172c1.032,0,2.049-.006,3.078-.006,3.1,0,6.289.028,10.228.165,4.042.142,5.477,2.584,5.477,4.632,0,2.622-2.25,5.354-6.548,5.505-2.771.1-5.128.217-7.2.323a78.438,78.438,0,0,1-10.092.137c-3.109-.244-4.406-2.753-4.314-5.132a5.839,5.839,0,0,1,6.246-5.617Zm-.228,12.867c3.513-.264,4.913-.307,7.7-.391,1.142-.035,2.514-.076,4.355-.143.117,0,.231-.006.344-.006,3.612,0,5.062,2.153,5.2,4.045.184,2.534-1.8,5.337-5.96,5.792a.852.852,0,0,0-.1.018,89.1,89.1,0,0,1-12.733,1.128,4.443,4.443,0,0,1-4.458-4.614,5.665,5.665,0,0,1,5.652-5.829m11.844,10.786.029-.006c5.055-.582,7.461-4.147,7.225-7.384a5.653,5.653,0,0,0-3.783-4.936,6.986,6.986,0,0,0,5.2-6.536,5.86,5.86,0,0,0-3.756-5.482,6.642,6.642,0,0,0,4.284-5.791c.11-2.711-1.687-5.577-5.906-6.119a6.675,6.675,0,0,0,4.867-5.48c.3-2.492-1.015-5.252-4.513-6.341.382.006.758.01,1.116.01,4.691,0,7.3-.533,8.839-2.087-.228,2.579-.341,4.211-.372,4.676-2.876,6.506-1.758,14.989,2.8,21.157,3.29,4.453,7.793,6.9,12.564,6.9a14.2,14.2,0,0,0,1.776-.113.75.75,0,0,0-.189-1.489c-4.864.616-9.581-1.641-12.945-6.194-4.273-5.784-5.31-13.73-2.581-19.774a.772.772,0,0,0,.066-.263c0-.06.232-3.715.871-9.889.172-1.1.3-2.353.426-3.8,0-.024-.007-.046-.007-.07.38-3.362.86-7.24,1.46-11.523,1.511-10.8,6.172-14.011,8.05-13.823a.8.8,0,0,1,.791.965c-.252,4.035,2.635,24.25,5.745,30.319,3.54,6.909,14.212,6.964,19.341,6.991h.58c14.842,0,57.691-2.564,63.925-2.942v47.65a25.541,25.541,0,0,1-.4,4.445c-4.717-.132-15.366-.355-28.7-.632-28.8-.6-69.346-1.446-88.658-2.181.62-.088,1.242-.167,1.858-.267M30.8,255.2V184.853a25.612,25.612,0,0,1,25.583-25.579l139.578.017a25.574,25.574,0,0,1,25.507,25.582V206.12c-5.9.358-49.058,2.944-63.921,2.944h-.576c-4.833-.025-14.891-.077-18.014-6.175-2.944-5.746-5.822-25.706-5.582-29.541a2.287,2.287,0,0,0-2.138-2.551c-2.87-.294-8.071,3.552-9.688,15.107-.892,6.371-1.519,11.843-1.949,16.067-1.039,5.8-4.209,5.61-22.735,4.484l-4.837-.291-.037,0c-4.972-.6-7.791,2.605-8.326,5.827a6,6,0,0,0,4.758,7.142c.972.144,1.951.269,2.928.4l-3.275-.108-.59-.019a7.152,7.152,0,0,0-7.823,6.634,5.876,5.876,0,0,0,5.262,6.572c.418.048.887.089,1.4.126a7.259,7.259,0,0,0-3.236,5.821c-.117,2.995,1.616,6.366,5.694,6.685.468.038.941.062,1.418.082a6.992,6.992,0,0,0-3.622,6.408,5.947,5.947,0,0,0,5.958,6.069c.227,0,.455-.018.683-.023a.744.744,0,0,0,.29.093c8.128.829,62.713,1.967,98.832,2.72,13.074.273,23.577.492,28.419.624a25.618,25.618,0,0,1-24.868,19.607H56.385A25.643,25.643,0,0,1,30.8,255.2m97.107,27.114h67.983a27.124,27.124,0,0,0,26.495-21.489.731.731,0,0,0,.089-.318.588.588,0,0,0-.013-.073,27.02,27.02,0,0,0,.507-5.162v-70.4c0-.573-.022-1.141-.056-1.7a238.171,238.171,0,0,1,100.143-30.34q-.039.774-.04,1.57c0,8.23,3.137,14.91,7.628,16.246a5.48,5.48,0,0,0,1.558.228,5.32,5.32,0,0,0,.594-.035.594.594,0,0,0,.071.014h8.306a53.484,53.484,0,0,1-4.395,17.92,31.165,31.165,0,0,1-11.87,14.042c-1.724,1.043-4.89,1.8-8.557,2.686-9.7,2.334-22.988,5.53-29.527,17.5-8.048,14.716-17.229,62.963-21.436,91.8a26.14,26.14,0,0,0,9.271,23.862c-10.274,4.97-33.938,22.611-54.47,83.435l-79.766-77.877a.752.752,0,0,0-.784-.167q-2.42.893-4.759,1.922l-17.538-19.925a.747.747,0,0,0-.437-.244c-1.863-.315-3.812-.62-5.828-.914a236.326,236.326,0,0,1,16.831-42.578m-11.515,44.927,7.955,9.037c-40.749-3.467-92.4-6.174-112.11,0-3.747-2.564-7.12-4.956-10.022-7.063,21.52-9.55,80.344-7.664,114.177-1.972M103.7,421.087c31.948,27.85,63.739,55.111,96.981,81.643a42.222,42.222,0,0,0,56.738-3.971,480.017,480.017,0,0,0,54.472-68.691l38.649,63.47c-15.778,32.421-38.561,69.228-69.639,112.506a.748.748,0,0,0-.04.812,88.8,88.8,0,0,0,14.171,18.59C193.294,605.629,116.8,523.958,103.7,421.087M317.573,764.8c-14.8-18.233-28.074-75.609-31.234-109.827l6.7-9.977c5.9,33.563,17.2,90.263,28.862,108.5q-2.061,5.689-4.331,11.307m41.107-112.36q-4.928-.7-9.576-1.642a.734.734,0,0,0-.22-.043c-16.4-3.345-30.218-8.984-41.617-17l32.361-50.069a.75.75,0,1,0-1.259-.814L306.044,632.89q-1.8-1.312-3.513-2.71a.725.725,0,0,0-.241-.288.734.734,0,0,0-.232-.1q-1.994-1.641-3.873-3.4a.731.731,0,0,0-.437-.4A86.663,86.663,0,0,1,282.4,606.525c31.1-43.343,53.891-80.209,69.667-112.7a.754.754,0,0,0-.034-.718L324.9,448.552l1.067-43.759a.75.75,0,0,0-1.424-.346,246.748,246.748,0,0,1-13.28,23.811c-.01.015-.01.033-.019.049a478.519,478.519,0,0,1-54.915,69.419,40.713,40.713,0,0,1-54.714,3.832c-33.688-26.887-65.887-54.523-98.274-82.769a.738.738,0,0,0-.338-.294q-7.608-6.636-15.237-13.314a83.575,83.575,0,0,1,9.016-23.145.731.731,0,0,0,.336-.248.747.747,0,0,0,.127-.567,82.627,82.627,0,0,1,16.668-20.148l43.228,40.422a.75.75,0,1,0,1.025-1.1l-43.113-40.316a83.248,83.248,0,0,1,19.6-12.367.735.735,0,0,0,.607-.169.722.722,0,0,0,.112-.148c1.425-.626,2.87-1.222,4.339-1.774L220,424.006a.757.757,0,0,0,.7.192.749.749,0,0,0,.534-.491c20.934-62.676,45.052-79.6,54.768-84.016a25.748,25.748,0,0,0,6.262,3.324,400.88,400.88,0,0,0,83.367,19.633l60.115,118.4a48.807,48.807,0,0,1,1.739,40.176,809.718,809.718,0,0,1-53.334,106.342.739.739,0,0,0-.371.626q-7.34,12.267-15.1,24.251M376.1,627.216A811.229,811.229,0,0,0,428.872,521.79a50.317,50.317,0,0,0-1.791-41.419l-59.662-117.51c.993.12,1.984.243,2.977.355a3.033,3.033,0,0,0,.626.076h.028c2.81-.025,5.979-3.979,8.7-10.848q2.453-1.077,4.862-2.242L380.3,363.747a.751.751,0,0,0,.715.978.78.78,0,0,0,.2-.026l70.276-19.21a.756.756,0,0,0,.511-.479l38.733-112.142a.75.75,0,0,0-.9-.971l-30.883,7.979L462.5,227a.749.749,0,0,0-.9-.928l-11.1,2.679a.75.75,0,0,0-.562.6l-1.522,8.435a19.812,19.812,0,0,0-8.169.441l-18.2-29.794h0c-.028-.045-.058-.09-.089-.134a2.9,2.9,0,0,0-4.738,3.349l20.061,27.588a26.567,26.567,0,0,0-10.991,9.078l-9.639,2.49a.75.75,0,0,0-.528.5l-2.875,9.031a129.284,129.284,0,0,1-4.718-13.456c-1.255-4.039-2.552-8.216-4.1-12-9.532-23.376-27.79-27.883-35.586-29.808-1.114-.275-2-.493-2.613-.705a14.425,14.425,0,0,1-9.9-14.883.688.688,0,0,0,.005-.112,25.478,25.478,0,0,1,.344-4.189c3.352,1.442,7.858,2.557,11.8.74,3.185-1.468,5.452-4.614,6.747-9.387q.547-2.508.88-5.038c4.438-.857,8.053-7.171,8.667-15.221A239.088,239.088,0,0,1,567.2,315.423H511.49a11.6,11.6,0,0,0-11.584,11.583v41.249a11.641,11.641,0,0,0,11.628,11.626h61.407v36.3H512.755a27.083,27.083,0,0,0-27.08,27.083v90.556a27.163,27.163,0,0,0,23.014,26.811A239.749,239.749,0,0,1,376.1,627.216m111.077-93.394V518.491c5.7-.14,18.809-.282,33.916-.445,17.312-.187,36.885-.4,51.849-.671v42.07H512.758a25.65,25.65,0,0,1-25.583-25.623m190.635.108a25.549,25.549,0,0,1-25.548,25.515h-60.22V516.12q2.31.168,4.623.272a5.942,5.942,0,0,0,5.936-6.069,6.976,6.976,0,0,0-4.83-6.93c.532.013,1.064.036,1.6.044,4.094-.175,5.965-3.479,5.97-6.475a7.165,7.165,0,0,0-4.073-6.557,6.346,6.346,0,0,0,4.458-6.444,7.245,7.245,0,0,0-5.021-6.854,6.494,6.494,0,0,0,3.94-6.6,6.983,6.983,0,0,0-7.269-6.773c-1.923-.027-3.568-.02-5.326.009V417.672H652.23a25.578,25.578,0,0,1,25.58,25.578Z" fill="#0f2852"/><path d="M634.735,350.769l-1.233,7.109a.75.75,0,0,0,.739.878.738.738,0,0,0,.348-.086l6.387-3.338,6.31,3.337a.75.75,0,0,0,1.091-.784l-1.161-7.115,5.082-5.01a.75.75,0,0,0-.42-1.277l-7.107-1.015-3.119-6.453a.747.747,0,0,0-.672-.424.689.689,0,0,0-.675.417l-3.194,6.46L630,344.483a.75.75,0,0,0-.416,1.28Zm2.98-5.872a.748.748,0,0,0,.565-.41l2.689-5.438,2.626,5.431a.747.747,0,0,0,.568.417l6,.857-4.28,4.22a.748.748,0,0,0-.214.654l.98,6.01-5.325-2.817a.749.749,0,0,0-.7,0l-5.391,2.818,1.041-6a.75.75,0,0,0-.216-.665l-4.339-4.218Z" fill="#0f2852"/><path d="M605.493,350.769l-1.233,7.109a.75.75,0,0,0,.739.878.738.738,0,0,0,.348-.086l6.386-3.338,6.31,3.333a.75.75,0,0,0,1.091-.784l-1.161-7.112,5.153-5.01a.749.749,0,0,0-.417-1.28l-7.113-1.012-3.189-6.458a.751.751,0,0,0-1.346,0l-3.192,6.46-7.111,1.015a.75.75,0,0,0-.416,1.28Zm2.98-5.872a.751.751,0,0,0,.566-.41l2.7-5.453,2.692,5.452a.75.75,0,0,0,.568.411l5.992.852-4.339,4.217a.752.752,0,0,0-.218.659l.982,6.009-5.326-2.813a.749.749,0,0,0-.7,0L606,356.638l1.041-6a.75.75,0,0,0-.216-.665l-4.339-4.218Z" fill="#0f2852"/><path d="M571.1,345.763l5.151,5.006-1.233,7.109a.75.75,0,0,0,.739.878.738.738,0,0,0,.348-.086l6.389-3.339,6.387,3.336a.758.758,0,0,0,.79-.059.75.75,0,0,0,.3-.734l-1.232-7.108,5.15-5.007a.75.75,0,0,0-.416-1.28l-7.111-1.015-3.194-6.456a.781.781,0,0,0-1.344,0l-3.194,6.46-7.111,1.015a.75.75,0,0,0-.416,1.28m8.131-.866a.748.748,0,0,0,.565-.41l2.7-5.454,2.7,5.45a.748.748,0,0,0,.565.41l5.991.855-4.339,4.218a.751.751,0,0,0-.217.666l1.041,6-5.39-2.815a.752.752,0,0,0-.7,0l-5.391,2.818,1.041-6a.75.75,0,0,0-.216-.665l-4.339-4.218Z" fill="#0f2852"/><path d="M564.228,344.479l-7.111-1.012-3.193-6.459a.781.781,0,0,0-1.344,0l-3.193,6.459-7.112,1.016a.75.75,0,0,0-.416,1.28l5.154,5.009-1.161,7.109a.749.749,0,0,0,1.09.784l6.312-3.337,6.387,3.338a.75.75,0,0,0,1.087-.792l-1.233-7.109,5.15-5.006a.749.749,0,0,0-.417-1.28m-6.062,5.487a.75.75,0,0,0-.217.666l1.041,6-5.39-2.817a.754.754,0,0,0-.348-.085.742.742,0,0,0-.351.087l-5.326,2.815.982-6.005a.752.752,0,0,0-.218-.659L544,345.752l5.99-.855a.753.753,0,0,0,.566-.41l2.7-5.454,2.7,5.454a.753.753,0,0,0,.567.41l5.99.852Z" fill="#0f2852"/><path d="M534.989,344.483l-7.109-1.015-3.2-6.46a.748.748,0,0,0-.672-.417h0a.75.75,0,0,0-.672.423l-3.118,6.454-7.106,1.015a.749.749,0,0,0-.416,1.28l5.15,5.006-1.233,7.109a.75.75,0,0,0,1.09.791l6.312-3.338,6.386,3.339a.75.75,0,0,0,1.087-.792l-1.233-7.109,5.15-5.006a.749.749,0,0,0-.416-1.28m-6.063,5.487a.75.75,0,0,0-.217.666l1.041,6-5.389-2.817a.744.744,0,0,0-.348-.086.753.753,0,0,0-.351.087l-5.309,2.808,1.039-5.994a.748.748,0,0,0-.217-.665l-4.339-4.218,5.99-.855a.756.756,0,0,0,.57-.417l2.624-5.432,2.691,5.439a.751.751,0,0,0,.566.41l5.988.855Z" fill="#0f2852"/><path d="M544.069,81.972a.75.75,0,0,0,1.061,0l14.546-14.545a9.465,9.465,0,1,0-13.4-13.376L544.6,55.79l-1.694-1.755a9.47,9.47,0,0,0-13.378.008l-.006.005a9.46,9.46,0,0,0,.006,13.379ZM530.583,55.109l.016-.016a7.906,7.906,0,0,1,5.617-2.325h.005a7.907,7.907,0,0,1,5.622,2.325l2.217,2.3a.75.75,0,0,0,1.079,0L547.35,55.1a7.965,7.965,0,1,1,11.265,11.264L544.6,80.381,530.589,66.366a7.959,7.959,0,0,1-.006-11.257" fill="#0f2852"/><path d="M143.529,621.735l-27.777-4L103.369,592.6a.781.781,0,0,0-1.346,0L89.644,617.735l-27.778,4a.75.75,0,0,0-.418,1.278L81.532,642.64l-4.757,27.628a.75.75,0,0,0,1.088.791L102.7,658l24.836,13.059a.75.75,0,0,0,1.088-.791l-4.757-27.628,20.081-19.627a.749.749,0,0,0-.418-1.278m-20.993,20.108a.75.75,0,0,0-.215.664l4.566,26.517-23.839-12.535a.751.751,0,0,0-.7,0L78.512,669.024l4.565-26.517a.75.75,0,0,0-.215-.664L63.584,623l26.665-3.841a.749.749,0,0,0,.566-.411L102.7,594.628l11.885,24.123a.749.749,0,0,0,.566.411L141.811,623Z" fill="#0f2852"/><path d="M302.35,361.3a53.046,53.046,0,0,1-40.757,9.208.75.75,0,1,0-.275,1.475,53.914,53.914,0,0,0,9.885.911,54.583,54.583,0,0,0,32.03-10.381.75.75,0,0,0-.883-1.213" fill="#0f2852"/></g></g></g></svg>